{"title":"Shrek Forever After (2010) TS XViD - IMAGiNE","uid":5598761,"size":1628208680,"categoryP":"video","categoryS":"movies","magnet":"?xt=urn:btih:5c84f806d5c440c1d177bd1b94daad0c36870096&amp;dn=Shrek+Forever+After+%282010%29+TS+XViD+-+IMAGiNE&amp;tr=udp%3A%2F%2Ftracker.openbittorrent.com%3A80&amp;tr=udp%3A%2F%2Fopen.demonii.com%3A1337&amp;tr=udp%3A%2F%2Ftracker.coppersurfer.tk%3A6969&amp;tr=udp%3A%2F%2Fexodus.desync.com%3A6969","seeders":0,"leechers":0,"uploader":"Ripdaq666","files":2,"time":1275171815,"description":"Video Codec.......:XVID \nRelease  Date......:24/05/10\nAudio Codec.......:MP3\nTheatre  Date......:21/05/10\nAudio Bitrate.....:128\nRuntime...........:1h 18mn\nSubtitles.........:NIL\nLanguage..........:ENGLISH\nResolution...... 662 x 280 \nIMDb  URL..........:http://www.imdb.com/title/tt0892791/\n\n\nDETAILS:\n\nVideo\nID                               : 0\nFormat                           : MPEG-4 Visual\nFormat profile                   : Advanced Simple@L5\nFormat settings, BVOP            : Yes\nFormat settings, QPel            : No\nFormat settings, GMC             : No warppoints\nFormat settings, Matrix          : Default (MPEG)\nMuxing mode                      : Packed bitstream\nCodec ID                         : XVID\nCodec ID/Hint                    : XviD\nDuration                         : 1h 18mn\nBit rate                         : 2 362 Kbps\nWidth                            : 662 pixels\nHeight                           : 280 pixels\nDisplay aspect ratio             : 2.35:1\nFrame rate                       : 25.000 fps\nResolution                       : 8 bits\nColorimetry                      : 4:2:0\nScan type                        : Progressive\nBits/(Pixel*Frame)               : 0.510\nStream size                      : 1.29 GiB (94%)\nWriting library                  : XviD 1.2.1 (UTC 2008-12-04)\n\nAudio\nID                               : 1\nFormat                           : MPEG Audio\nFormat version                   : Version 1\nFormat profile                   : Layer 3\nCodec ID                         : 55\nCodec ID/Hint                    : MP3\nDuration                         : 1h 18mn\nBit rate mode                    : Constant\nBit rate                         : 128 Kbps\nChannel(s)                       : 2 channels\nSampling rate                    : 44.1 KHz\nStream size                      : 71.7 MiB (5%)\nAlignment                        : Split accross interleaves\nInterleave, duration             : 40 ms (1.00 video frame)\nInterleave, preload duration     : 500 ms","torrent":{"xt":"urn:btih:5c84f806d5c440c1d177bd1b94daad0c36870096","amp;dn":"Shrek+Forever+After+%282010%29+TS+XViD+-+IMAGiNE","amp;tr":["udp%3A%2F%2Ftracker.openbittorrent.com%3A80","udp%3A%2F%2Fopen.demonii.com%3A1337","udp%3A%2F%2Ftracker.coppersurfer.tk%3A6969","udp%3A%2F%2Fexodus.desync.com%3A6969"],"infoHash":"5c84f806d5c440c1d177bd1b94daad0c36870096","infoHashBuffer":{"type":"Buffer","data":[92,132,248,6,213,196,64,193,209,119,189,27,148,218,173,12,54,135,0,150]},"announce":[],"urlList":[]}}